<svg id="Layer_1" data-name="Layer 1" xmlns="http://www.w3.org/2000/svg" viewBox="0 0 201 201"><defs><style>.cls-1{fill:#f0f0f0;}</style></defs><title>begin</title><path class="cls-1" d="M67,94.36c0-2-1.23-3.6-4.44-3.6H56.71v7.35h5.58C65.29,98.11,67,96.7,67,94.36Z"/><path class="cls-1" d="M62.23,100.48H56.71v8.46h5.64c3.6,0,5.16-1.47,5.16-4.23C67.51,102.34,66.31,100.48,62.23,100.48Z"/><path class="cls-1" d="M100.5.37.44,100.44,100.5,200.5,200.56,100.44Zm-38.63,111H53.74v-23h9c4.32,0,7.2,1.77,7.2,5.76a5.29,5.29,0,0,1-3.75,5.1,5.69,5.69,0,0,1,4.35,5.7C70.51,110,66.37,111.37,61.87,111.37Zm28.53,0H75v-23H90v2.52H78v7.23H89.47v2.49H78v8.28H90.4Zm23.46,0h-2.22l-.27-3h-.12c-1,2-3.75,3.51-7.17,3.51-6.63,0-10.92-5.16-10.92-11.76,0-7.74,5.43-12,11.31-12,5.46,0,8.82,2.94,9.3,7h-2.91c-.33-2.49-2.58-4.53-6-4.53-4.77,0-8.58,3.3-8.58,9.33,0,5.43,3.54,9.39,7.92,9.39s6.93-2.37,6.93-7v-.51h-7.23V99.34h10Zm7.83,0h-3v-23h3Zm20.85,0L130.48,91.18v20.19h-3v-23H132l11.73,19.74V88.33h3v23Z"/></svg>