<svg id="Layer_1" data-name="Layer 1" xmlns="http://www.w3.org/2000/svg" xmlns:xlink="http://www.w3.org/1999/xlink" viewBox="0 0 526 201"><defs><style>.cls-1{fill:none;}.cls-2{clip-path:url(#clip-path);}.cls-3{fill:#f4eef8;}</style><clipPath id="clip-path"><rect class="cls-1" width="526" height="200.86"/></clipPath></defs><title>logo</title><g class="cls-2"><path class="cls-3" d="M31.33,100.43c0-78.2-4-85.43-11.24-85.43H16.34c-.27,14.19-.27,55.17-.27,85.7,0,43.12-.27,70.17.27,85.17h2.94c9.11,0,12-7.24,12-85.44M0,200.86c.54-27.31.54-57.58.54-100.16S.54,23.3,0,0H20.62c18,0,26.52,9.91,26.52,100.43,0,85.7-7.5,100.43-27.32,100.43Z"/><path class="cls-3" d="M55.71,200.86c.53-23.3.53-57.58.53-100.43S56.24,23,55.71,0H72.58c-.54,23-.8,57.31-.8,100.43,0,42.58.26,76.86.8,100.43Z"/><path class="cls-3" d="M95.35,0c.26,20.89,2.41,94.54,5.62,146.76,1.07,16.07,1.61,30.27,1.87,40.71h1.34c.27-10.44.54-24.64,1.34-40.44C108.2,94.54,111.68,20.89,112,0h15.8c-3.48,49.28-11,176.22-12.59,200.86-3.21-.26-7.23-.53-12-.53a108.16,108.16,0,0,0-12,.53C89.45,175.69,81.69,40.17,78.47,0Z"/><path class="cls-3" d="M133.64,200.86c.53-23.3.53-57.58.53-100.43s0-77.4-.53-100.43h16.87c-.53,23-.8,57.31-.8,100.43,0,42.58.27,76.86.8,100.43Z"/><path class="cls-3" d="M192.29,100.43c0-78.2-4-85.43-11.25-85.43h-3.75C177,29.19,177,70.17,177,100.7c0,43.12-.27,70.17.26,85.17h3c9.1,0,12-7.24,12-85.44M161,200.86c.53-27.31.53-57.58.53-100.16s0-77.4-.53-100.7h20.62c17.94,0,26.51,9.91,26.51,100.43,0,85.7-7.5,100.43-27.32,100.43Z"/><path class="cls-3" d="M216.66,200.86c.27-25.17.27-57.58.27-100.43,0-42.58,0-78.2-.27-100.43h37.76V15.27c-7.49-.27-15-.27-20.88-.27,0,25.17-.27,52.22-.27,75.79,7.5,0,13.92,0,20.35-.27v15.54c-7-.27-14.19-.27-20.35-.27,0,35.89,0,57.85.27,80.08h20.88v15Z"/><path class="cls-3" d="M294.33,100.43c0-78.2-4-85.43-11.25-85.43h-3.75c-.27,14.19-.27,55.17-.27,85.7,0,43.12-.26,70.17.27,85.17h2.95c9.1,0,12.05-7.24,12.05-85.44M263,200.86c.53-27.31.53-57.58.53-100.16s0-77.4-.53-100.7h20.62c17.94,0,26.51,9.91,26.51,100.43,0,85.7-7.5,100.43-27.32,100.43Z"/><path class="cls-3" d="M381.38,0V15.27H369.86c0,53,0,170.33.54,185.59H353.79c.54-15.8.54-146.49.54-185.59H342.55V0Z"/><path class="cls-3" d="M387.81,200.86c.53-23.3.53-57.58.53-100.43s0-77.4-.53-100.43h16.87c-.54,23-.8,57.31-.8,100.43,0,42.58.26,76.86.8,100.43Z"/><path class="cls-3" d="M415.12,0h21.7c1.34,16.6,4.82,59.72,8,95.61.54,9.91,1.07,25.18,1.61,39.37h1.07c.8-14.19,1.87-29.19,2.41-39.1,3.21-36.69,7-79,8-95.88h19.82c-.26,26.25-.26,56.24-.26,100.16,0,42.59.26,71.78.26,100.7H461.72c.54-36.15.54-58.38.54-94.8,0-26,1.61-59.46,2.14-88.92h-1.34c-1.34,24.1-2.94,52.22-4,66.69l-9.65,117h-7.76L431.73,81.68c-1.34-16.6-2.68-42.85-4-64.81h-1.07c.27,32.14,1.87,61.06,1.87,88.92,0,37,.27,58.92.54,95.07H415.12Z"/><path class="cls-3" d="M488.24,200.86c.26-25.17.26-57.58.26-100.43,0-42.58,0-78.2-.26-100.43H526V15.27C518.5,15,511,15,505.11,15c0,25.17-.27,52.22-.27,75.79,7.5,0,13.93,0,20.35-.27v15.54c-7-.27-14.19-.27-20.35-.27,0,35.89,0,57.85.27,80.08H526v15Z"/></g></svg>