<svg id="Layer_1" data-name="Layer 1" xmlns="http://www.w3.org/2000/svg" viewBox="0 0 286 105"><defs><style>.cls-1{fill:#f0f0f0;}</style></defs><title>mobile-home</title><path class="cls-1" d="M0,104.44c.28-14.19.28-29.91.28-52S.28,12.2,0,.1H10.71C20,.1,24.48,5.25,24.48,52.27c0,44.52-3.89,52.17-14.19,52.17ZM16.28,52.27c0-40.62-2.09-44.38-5.85-44.38H8.49c-.14,7.38-.14,28.66-.14,44.52,0,22.4-.14,36.45.14,44.24H10C14.75,96.65,16.28,92.89,16.28,52.27Z"/><path class="cls-1" d="M30.33,104.44c.28-12.1.28-29.91.28-52.17s0-40.2-.28-52.17h8.76c-.28,12-.42,29.77-.42,52.17,0,22.12.14,39.93.42,52.17Z"/><path class="cls-1" d="M52.31.1c.14,10.85,1.25,49.11,2.92,76.24.55,8.34.83,15.72,1,21.14h.7c.14-5.42.28-12.8.69-21C59,49.21,60.79,11,60.93.1h8.21c-1.81,25.6-5.7,91.54-6.54,104.34-1.67-.14-3.75-.28-6.26-.28a54.59,54.59,0,0,0-6.26.28C49.25,91.36,45.21,21,43.54.1Z"/><path class="cls-1" d="M73.59,104.44c.28-12.1.28-29.91.28-52.17s0-40.2-.28-52.17h8.76c-.27,12-.41,29.77-.41,52.17,0,22.12.14,39.93.41,52.17Z"/><path class="cls-1" d="M89.17,104.44c.28-14.19.28-29.91.28-52s0-40.21-.28-52.31H99.88c9.32,0,13.77,5.15,13.77,52.17,0,44.52-3.89,52.17-14.18,52.17Zm16.28-52.17c0-40.62-2.09-44.38-5.85-44.38H97.66c-.14,7.38-.14,28.66-.14,44.52,0,22.4-.14,36.45.14,44.24h1.53C103.92,96.65,105.45,92.89,105.45,52.27Z"/><path class="cls-1" d="M119.5,104.44c.14-13.08.14-29.91.14-52.17s0-40.62-.14-52.17h19.61V8c-3.89-.14-7.79-.14-10.85-.14,0,13.08-.14,27.13-.14,39.37,3.9,0,7.24,0,10.58-.14v8.07c-3.62-.14-7.38-.14-10.58-.14,0,18.64,0,30.05.14,41.6h10.85v7.79Z"/><path class="cls-1" d="M145,104.44c.27-14.19.27-29.91.27-52s0-40.21-.27-52.31h10.71c9.32,0,13.77,5.15,13.77,52.17,0,44.52-3.9,52.17-14.19,52.17Zm16.27-52.17c0-40.62-2.08-44.38-5.84-44.38h-1.95c-.14,7.38-.14,28.66-.14,44.52,0,22.4-.14,36.45.14,44.24H155C159.7,96.65,161.23,92.89,161.23,52.27Z"/><path class="cls-1" d="M206.71.1V8h-6c0,27.55,0,88.48.28,96.41h-8.62c.28-8.21.28-76.1.28-96.41h-6.13V.1Z"/><path class="cls-1" d="M211.44,104.44c.27-12.1.27-29.91.27-52.17s0-40.2-.27-52.17h8.76c-.28,12-.42,29.77-.42,52.17,0,22.12.14,39.93.42,52.17Z"/><path class="cls-1" d="M227,.1h11.27c.69,8.63,2.5,31,4.17,49.67.28,5.14.56,13.07.83,20.45h.56c.42-7.38,1-15.17,1.25-20.31,1.67-19.06,3.62-41,4.18-49.81h10.29c-.14,13.63-.14,29.22-.14,52,0,22.12.14,37.28.14,52.31h-8.35c.28-18.78.28-30.33.28-49.25,0-13.49.84-30.88,1.11-46.19h-.69c-.7,12.53-1.53,27.13-2.09,34.65l-5,60.79h-4l-5.15-61.91c-.69-8.62-1.39-22.26-2.08-33.66H233c.14,16.69,1,31.71,1,46.18,0,19.2.14,30.61.28,49.39H227Z"/><path class="cls-1" d="M266.38,104.44c.14-13.08.14-29.91.14-52.17s0-40.62-.14-52.17H286V8c-3.9-.14-7.79-.14-10.85-.14C275.15,21,275,35,275,47.26c3.9,0,7.23,0,10.57-.14v8.07c-3.61-.14-7.37-.14-10.57-.14,0,18.64,0,30.05.14,41.6H286v7.79Z"/></svg>