<svg id="Layer_1" data-name="Layer 1" xmlns="http://www.w3.org/2000/svg" viewBox="0 0 500 768"><defs><style>.cls-1{fill:#edc2f4;}</style></defs><title>particles</title><rect class="cls-1" x="103.07" y="111.52" width="3.18" height="3.18"/><rect class="cls-1" x="255.61" y="98.44" width="3.18" height="3.18"/><rect class="cls-1" x="322.17" y="92.9" width="3.18" height="3.18"/><rect class="cls-1" x="296.82" y="7.3" width="3.18" height="3.18"/><rect class="cls-1" x="6.8" y="73.08" width="3.18" height="3.18"/><rect class="cls-1" x="8.37" y="35.05" width="3.18" height="3.18"/><rect class="cls-1" x="8.39" y="157.86" width="3.18" height="3.18"/><rect class="cls-1" x="23.44" y="224.43" width="3.18" height="3.18"/><rect class="cls-1" x="11.55" y="196.68" width="3.18" height="3.18"/><rect class="cls-1" x="42.46" y="52.48" width="3.18" height="3.18"/><rect class="cls-1" x="45.64" y="111.92" width="3.18" height="3.18"/><rect class="cls-1" x="143.88" y="36.64" width="3.18" height="3.18"/><rect class="cls-1" x="142.29" y="54.06" width="1.59" height="1.59"/><rect class="cls-1" x="163.68" y="77.04" width="1.59" height="1.59"/><rect class="cls-1" x="170.04" y="82.58" width="1.59" height="1.59"/><rect class="cls-1" x="130.42" y="100.81" width="1.59" height="1.59"/><rect class="cls-1" x="112.19" y="68.31" width="1.59" height="1.59"/><rect class="cls-1" x="51.97" y="17.62" width="1.59" height="1.59"/><rect class="cls-1" x="125.65" y="85.76" width="1.59" height="1.59"/><rect class="cls-1" x="39.3" y="4.94" width="1.59" height="1.59"/><rect class="cls-1" x="73.37" y="19.19" width="1.59" height="1.59"/><rect class="cls-1" x="175.59" y="54.85" width="1.59" height="1.59"/><rect class="cls-1" x="153.4" y="18.41" width="1.59" height="1.59"/><rect class="cls-1" x="177.18" y="65.94" width="1.59" height="1.59"/><rect class="cls-1" x="189.84" y="50.08" width="1.59" height="1.59"/><rect class="cls-1" x="189.05" y="5.73" width="1.59" height="1.59"/><rect class="cls-1" x="200.14" y="24.73" width="1.59" height="1.59"/><rect class="cls-1" x="181.13" y="39" width="1.59" height="1.59"/><rect class="cls-1" x="154.18" y="73.06" width="1.59" height="1.59"/><rect class="cls-1" x="158.93" y="73.08" width="1.59" height="1.59"/><rect class="cls-1" x="139.92" y="29.49" width="1.59" height="1.59"/><rect class="cls-1" x="154.18" y="9.68" width="1.59" height="1.59"/><rect class="cls-1" x="171.61" y="8.1" width="1.59" height="1.59"/><rect class="cls-1" x="150.24" y="72.29" width="1.59" height="1.59"/><rect class="cls-1" x="130.42" y="138.84" width="1.59" height="1.59"/><rect class="cls-1" x="110.61" y="138.85" width="1.59" height="1.59"/><rect class="cls-1" x="130.42" y="123.79" width="1.59" height="1.59"/><rect class="cls-1" x="141.51" y="106.35" width="1.59" height="1.59"/><rect class="cls-1" x="147.06" y="130.92" width="1.59" height="1.59"/><rect class="cls-1" x="138.34" y="165.79" width="1.59" height="1.59"/><rect class="cls-1" x="120.9" y="2.57" width="3.18" height="3.18"/><rect class="cls-1" x="188.25" y="28.71" width="3.18" height="3.18"/><rect class="cls-1" x="195.38" y="171.34" width="3.18" height="3.18"/><rect class="cls-1" x="343.56" y="157.08" width="3.18" height="3.18"/><rect class="cls-1" x="254.03" y="176.88" width="3.18" height="3.18"/><rect class="cls-1" x="236.59" y="255.34" width="3.18" height="3.18"/><rect class="cls-1" x="230.25" y="255.34" width="3.18" height="3.18"/><rect class="cls-1" x="196.98" y="256.92" width="3.18" height="3.18"/><rect class="cls-1" x="192.22" y="394.81" width="3.18" height="3.18"/><rect class="cls-1" x="177.16" y="505.73" width="3.18" height="3.18"/><rect class="cls-1" x="132.78" y="557.23" width="3.18" height="3.18"/><rect class="cls-1" x="124.86" y="669.76" width="3.18" height="3.18"/><rect class="cls-1" x="152.59" y="711.77" width="3.18" height="3.18"/><rect class="cls-1" x="63.06" y="733.14" width="3.18" height="3.18"/><rect class="cls-1" x="200.14" y="618.24" width="3.18" height="3.18"/><rect class="cls-1" x="266.71" y="657.08" width="3.18" height="3.18"/><rect class="cls-1" x="294.44" y="745.04" width="3.18" height="3.18"/><rect class="cls-1" x="322.96" y="748.21" width="3.18" height="3.18"/><rect class="cls-1" x="326.14" y="611.12" width="3.18" height="3.18"/><rect class="cls-1" x="318.22" y="594.49" width="3.18" height="3.18"/><rect class="cls-1" x="338.81" y="585.76" width="3.18" height="3.18"/><rect class="cls-1" x="315.05" y="690.36" width="3.18" height="3.18"/><rect class="cls-1" x="313.46" y="499.39" width="3.18" height="3.18"/><rect class="cls-1" x="253.23" y="629.35" width="3.18" height="3.18"/><rect class="cls-1" x="251.64" y="591.31" width="3.18" height="3.18"/><rect class="cls-1" x="322.97" y="584.19" width="3.18" height="3.18"/><rect class="cls-1" x="303.94" y="523.96" width="3.18" height="3.18"/><rect class="cls-1" x="160.52" y="624.58" width="3.18" height="3.18"/><rect class="cls-1" x="103.46" y="605.56" width="3.18" height="3.18"/><rect class="cls-1" x="132.77" y="605.56" width="3.18" height="3.18"/><rect class="cls-1" x="109.81" y="665.79" width="3.18" height="3.18"/><rect class="cls-1" x="111.4" y="722.06" width="3.18" height="3.18"/><rect class="cls-1" x="141.51" y="720.47" width="3.18" height="3.18"/><rect class="cls-1" x="239.77" y="525.53" width="3.18" height="3.18"/><rect class="cls-1" x="254.82" y="453.43" width="3.18" height="3.18"/><rect class="cls-1" x="287.3" y="513.66" width="3.18" height="3.18"/><rect class="cls-1" x="217.57" y="507.32" width="3.18" height="3.18"/><rect class="cls-1" x="326.14" y="272.76" width="3.18" height="3.18"/><rect class="cls-1" x="265.12" y="436.79" width="3.18" height="3.18"/><rect class="cls-1" x="280.96" y="433.63" width="3.18" height="3.18"/><rect class="cls-1" x="192.23" y="489.89" width="3.18" height="3.18"/><rect class="cls-1" x="254.03" y="367.06" width="3.18" height="3.18"/><rect class="cls-1" x="331.69" y="415.4" width="3.18" height="3.18"/><rect class="cls-1" x="337.23" y="360.72" width="3.18" height="3.18"/><rect class="cls-1" x="207.27" y="237.11" width="3.18" height="3.18"/><rect class="cls-1" x="242.93" y="294.16" width="3.18" height="3.18"/><rect class="cls-1" x="189.05" y="363.88" width="3.18" height="3.18"/><rect class="cls-1" x="116.15" y="346.46" width="3.18" height="3.18"/><rect class="cls-1" x="114.56" y="291.78" width="3.18" height="3.18"/><rect class="cls-1" x="2.05" y="363.88" width="3.18" height="3.18"/><rect class="cls-1" x="19.48" y="520.78" width="3.18" height="3.18"/><rect class="cls-1" x="70.99" y="590.53" width="3.18" height="3.18"/><rect class="cls-1" x="109.79" y="401.92" width="3.18" height="3.18"/><rect class="cls-1" x="149.43" y="384.49" width="3.18" height="3.18"/><rect class="cls-1" x="210.45" y="507.32" width="3.18" height="3.18"/><rect class="cls-1" x="204.89" y="515.25" width="3.18" height="3.18"/><rect class="cls-1" x="146.26" y="439.97" width="3.18" height="3.18"/><rect class="cls-1" x="151.02" y="650.74" width="3.18" height="3.18"/><rect class="cls-1" x="184.29" y="674.52" width="3.18" height="3.18"/><rect class="cls-1" x="79.7" y="734.73" width="3.18" height="3.18"/><rect class="cls-1" x="71.76" y="716.5" width="3.18" height="3.18"/><rect class="cls-1" x="25.01" y="759.3" width="3.18" height="3.18"/><rect class="cls-1" x="149.43" y="756.13" width="3.18" height="3.18"/><rect class="cls-1" x="190.63" y="664.22" width="3.18" height="3.18"/><rect class="cls-1" x="210.45" y="630.92" width="3.18" height="3.18"/><rect class="cls-1" x="89.2" y="428.86" width="3.18" height="3.18"/><rect class="cls-1" x="126.45" y="522.37" width="6.34" height="6.34"/><rect class="cls-1" x="134.38" y="306.83" width="6.34" height="6.34"/><rect class="cls-1" x="250.87" y="61.2" width="6.34" height="6.34"/><rect class="cls-1" x="307.14" y="422.52" width="6.34" height="6.34"/><rect class="cls-1" x="122.49" y="630.92" width="6.34" height="6.34"/><rect class="cls-1" x="290.49" y="650.74" width="6.34" height="6.34"/><rect class="cls-1" x="235.02" y="759.3" width="6.34" height="6.34"/><rect class="cls-1" x="48.8" y="540.59" width="6.34" height="6.34"/><rect class="cls-1" x="32.96" y="325.06" width="6.34" height="6.34"/><rect class="cls-1" x="50.39" y="84.17" width="6.34" height="6.34"/><rect class="cls-1" x="176.38" y="264.84" width="6.34" height="6.34"/><rect class="cls-1" x="100.29" y="588.94" width="3.18" height="3.18"/><rect class="cls-1" x="78.12" y="525.53" width="3.18" height="3.18"/><rect class="cls-1" x="42.46" y="570.71" width="3.18" height="3.18"/><rect class="cls-1" x="93.96" y="530.3" width="3.18" height="3.18"/><rect class="cls-1" x="241.34" y="247.41" width="3.18" height="3.18"/><rect class="cls-1" x="269.89" y="256.93" width="3.18" height="3.18"/><rect class="cls-1" x="310.28" y="238.69" width="3.18" height="3.18"/><rect class="cls-1" x="305.53" y="228.39" width="3.18" height="3.18"/><rect class="cls-1" x="337.22" y="96.85" width="3.18" height="3.18"/><rect class="cls-1" x="314.24" y="157.08" width="3.18" height="3.18"/><rect class="cls-1" x="180.34" y="105.56" width="3.18" height="3.18"/><rect class="cls-1" x="246.11" y="144.4" width="3.18" height="3.18"/><rect class="cls-1" x="254.03" y="272.76" width="3.18" height="3.18"/><rect class="cls-1" x="285.73" y="136.47" width="3.18" height="3.18"/><rect class="cls-1" x="125.67" y="23.96" width="3.18" height="3.18"/><rect class="cls-1" x="154.18" y="27.1" width="3.18" height="3.18"/><rect class="cls-1" x="89.21" y="155.49" width="3.18" height="3.18"/><rect class="cls-1" x="114.56" y="174.52" width="3.18" height="3.18"/><rect class="cls-1" x="193.79" y="133.29" width="3.18" height="3.18"/><rect class="cls-1" x="236.59" y="131.72" width="3.18" height="3.18"/><rect class="cls-1" x="100.29" y="218.09" width="3.18" height="3.18"/><rect class="cls-1" x="82.87" y="328.23" width="3.18" height="3.18"/><rect class="cls-1" x="59.89" y="293.37" width="3.18" height="3.18"/><rect class="cls-1" x="2.05" y="422.52" width="3.18" height="3.18"/><rect class="cls-1" x="3.62" y="576.26" width="3.18" height="3.18"/><rect class="cls-1" x="151.02" y="293.37" width="1.59" height="1.59"/><rect class="cls-1" x="219.18" y="347.24" width="1.59" height="1.59"/><rect class="cls-1" x="158.93" y="343.29" width="1.59" height="1.59"/><rect class="cls-1" x="133.58" y="419.36" width="1.59" height="1.59"/><rect class="cls-1" x="175.59" y="405.9" width="1.59" height="1.59"/><rect class="cls-1" x="185.09" y="413.81" width="1.59" height="1.59"/><rect class="cls-1" x="175.57" y="352.01" width="1.59" height="1.59"/><rect class="cls-1" x="192.22" y="301.3" width="1.59" height="1.59"/><rect class="cls-1" x="208.07" y="200.65" width="1.59" height="1.59"/><rect class="cls-1" x="174" y="323.48" width="1.59" height="1.59"/><rect class="cls-1" x="121.7" y="358.35" width="1.59" height="1.59"/><rect class="cls-1" x="169.24" y="427.29" width="1.59" height="1.59"/><rect class="cls-1" x="127.24" y="335.37" width="1.59" height="1.59"/><rect class="cls-1" x="137.54" y="335.37" width="1.59" height="1.59"/><rect class="cls-1" x="222.32" y="322.69" width="1.59" height="1.59"/><rect class="cls-1" x="172.41" y="169.75" width="1.59" height="1.59"/><rect class="cls-1" x="172.41" y="124.58" width="1.59" height="1.59"/><rect class="cls-1" x="140.72" y="257.71" width="1.59" height="1.59"/><rect class="cls-1" x="158.93" y="372.61" width="1.59" height="1.59"/><rect class="cls-1" x="206.5" y="357.54" width="1.59" height="1.59"/><rect class="cls-1" x="234.21" y="363.1" width="1.59" height="1.59"/><rect class="cls-1" x="249.27" y="413.02" width="1.59" height="1.59"/><rect class="cls-1" x="159.72" y="259.28" width="1.59" height="1.59"/><rect class="cls-1" x="126.45" y="256.91" width="1.59" height="1.59"/><rect class="cls-1" x="122.5" y="275.93" width="1.59" height="1.59"/><rect class="cls-1" x="211.25" y="287.83" width="1.59" height="1.59"/><rect class="cls-1" x="118.54" y="332.19" width="1.59" height="1.59"/><rect class="cls-1" x="57.51" y="336.15" width="1.59" height="1.59"/><rect class="cls-1" x="146.27" y="237.91" width="1.59" height="1.59"/><rect class="cls-1" x="179.55" y="227.61" width="1.59" height="1.59"/><rect class="cls-1" x="196.18" y="217.29" width="1.59" height="1.59"/><rect class="cls-1" x="184.29" y="236.32" width="1.59" height="1.59"/><rect class="cls-1" x="146.27" y="208.59" width="1.59" height="1.59"/><rect class="cls-1" x="124.86" y="226.8" width="1.59" height="1.59"/><rect class="cls-1" x="131.2" y="204.62" width="1.59" height="1.59"/><rect class="cls-1" x="158.95" y="197.48" width="1.59" height="1.59"/><rect class="cls-1" x="209.64" y="123" width="1.59" height="1.59"/><rect class="cls-1" x="190.64" y="114.29" width="1.59" height="1.59"/><rect class="cls-1" x="190.64" y="76.24" width="1.59" height="1.59"/><rect class="cls-1" x="208.07" y="65.94" width="1.59" height="1.59"/><rect class="cls-1" x="214.41" y="92.1" width="1.59" height="1.59"/><rect class="cls-1" x="181.13" y="219.66" width="1.59" height="1.59"/><rect class="cls-1" x="152.59" y="146.77" width="1.59" height="1.59"/><rect class="cls-1" x="200.14" y="329.81" width="1.59" height="1.59"/><rect class="cls-1" x="183.52" y="332.19" width="1.59" height="1.59"/><rect class="cls-1" x="189.06" y="309.21" width="1.59" height="1.59"/><rect class="cls-1" x="199.36" y="309.21" width="1.59" height="1.59"/><rect class="cls-1" x="190.63" y="326.65" width="1.59" height="1.59"/><rect class="cls-1" x="180.34" y="306.05" width="1.59" height="1.59"/><rect class="cls-1" x="323.76" y="359.92" width="1.59" height="1.59"/><rect class="cls-1" x="307.12" y="362.3" width="1.59" height="1.59"/><rect class="cls-1" x="312.66" y="339.33" width="1.59" height="1.59"/><rect class="cls-1" x="322.96" y="339.33" width="1.59" height="1.59"/><rect class="cls-1" x="314.26" y="356.76" width="1.59" height="1.59"/><rect class="cls-1" x="303.96" y="336.15" width="1.59" height="1.59"/><rect class="cls-1" x="282.55" y="404.31" width="1.59" height="1.59"/><rect class="cls-1" x="265.91" y="406.68" width="1.59" height="1.59"/><rect class="cls-1" x="271.46" y="383.7" width="1.59" height="1.59"/><rect class="cls-1" x="281.76" y="383.7" width="1.59" height="1.59"/><rect class="cls-1" x="273.05" y="401.13" width="1.59" height="1.59"/><rect class="cls-1" x="262.75" y="380.53" width="1.59" height="1.59"/><rect class="cls-1" x="210.45" y="578.64" width="1.59" height="1.59"/><rect class="cls-1" x="193.8" y="581.01" width="1.59" height="1.59"/><rect class="cls-1" x="199.36" y="558.03" width="1.59" height="1.59"/><rect class="cls-1" x="209.66" y="558.03" width="1.59" height="1.59"/><rect class="cls-1" x="200.95" y="575.48" width="1.59" height="1.59"/><rect class="cls-1" x="190.64" y="554.87" width="1.59" height="1.59"/><rect class="cls-1" x="98.71" y="764.86" width="1.59" height="1.59"/><rect class="cls-1" x="32.96" y="371.83" width="1.59" height="1.59"/><rect class="cls-1" x="28.19" y="356.76" width="1.59" height="1.59"/><rect class="cls-1" x="56.72" y="344.08" width="1.59" height="1.59"/><rect class="cls-1" x="61.47" y="344.08" width="1.59" height="1.59"/><rect class="cls-1" x="52.74" y="343.29" width="1.59" height="1.59"/><rect class="cls-1" x="27.41" y="287.82" width="1.59" height="1.59"/><rect class="cls-1" x="22.64" y="272.76" width="1.59" height="1.59"/><rect class="cls-1" x="51.17" y="260.09" width="1.59" height="1.59"/><rect class="cls-1" x="55.92" y="260.09" width="1.59" height="1.59"/><rect class="cls-1" x="47.21" y="259.28" width="1.59" height="1.59"/><rect class="cls-1" x="57.26" y="622.52" width="1.59" height="1.59" transform="translate(-488.78 318.58) rotate(-55.55)"/><rect class="cls-1" x="72.36" y="627.12" width="1.59" height="1.59" transform="translate(-486.02 333.03) rotate(-55.55)"/><rect class="cls-1" x="66.68" y="657.82" width="1.59" height="1.59" transform="translate(-513.8 341.68) rotate(-55.55)"/><rect class="cls-1" x="63.99" y="661.75" width="1.59" height="1.59" transform="translate(-518.21 341.17) rotate(-55.55)"/><rect class="cls-1" x="69.58" y="655.01" width="1.59" height="1.59" transform="translate(-510.23 342.86) rotate(-55.55)"/><rect class="cls-1" x="10.52" y="647.88" width="1.59" height="1.59" transform="translate(-530 291.06) rotate(-55.55)"/><rect class="cls-1" x="25.61" y="652.47" width="1.59" height="1.59" transform="translate(-527.23 305.49) rotate(-55.55)"/><rect class="cls-1" x="19.93" y="683.17" width="1.59" height="1.59" transform="translate(-555.01 314.14) rotate(-55.55)"/><rect class="cls-1" x="17.24" y="687.1" width="1.59" height="1.59" transform="translate(-559.42 313.63) rotate(-55.55)"/><rect class="cls-1" x="22.82" y="680.37" width="1.59" height="1.59" transform="translate(-551.45 315.31) rotate(-55.55)"/><rect class="cls-1" x="74.69" y="635.2" width="1.59" height="1.59" transform="translate(-491.67 338.47) rotate(-55.55)"/><rect class="cls-1" x="89.81" y="639.8" width="1.59" height="1.59" transform="translate(-488.9 352.93) rotate(-55.55)"/><rect class="cls-1" x="84.13" y="670.5" width="1.59" height="1.59" transform="translate(-516.68 361.58) rotate(-55.55)"/><rect class="cls-1" x="81.43" y="674.42" width="1.59" height="1.59" transform="translate(-521.08 361.05) rotate(-55.55)"/><rect class="cls-1" x="87" y="667.69" width="1.59" height="1.59" transform="translate(-513.11 362.73) rotate(-55.55)"/><rect class="cls-1" x="52.76" y="256.91" width="1.59" height="1.59"/><rect class="cls-1" x="48.01" y="241.86" width="1.59" height="1.59"/><rect class="cls-1" x="76.53" y="229.18" width="1.59" height="1.59"/><rect class="cls-1" x="81.29" y="229.19" width="1.59" height="1.59"/><rect class="cls-1" x="72.56" y="228.39" width="1.59" height="1.59"/><rect class="cls-1" x="28.21" y="191.93" width="1.59" height="1.59"/><rect class="cls-1" x="23.44" y="176.88" width="1.59" height="1.59"/><rect class="cls-1" x="51.97" y="164.22" width="1.59" height="1.59"/><rect class="cls-1" x="57.51" y="145.18" width="1.59" height="1.59"/><rect class="cls-1" x="52.76" y="130.13" width="1.59" height="1.59"/><rect class="cls-1" x="81.28" y="117.45" width="1.59" height="1.59"/><rect class="cls-1" x="86.04" y="117.45" width="1.59" height="1.59"/><rect class="cls-1" x="77.31" y="116.67" width="1.59" height="1.59"/><rect class="cls-1" x="49.58" y="220.46" width="1.59" height="1.59"/><rect class="cls-1" x="82.08" y="214.13" width="1.59" height="1.59"/><rect class="cls-1" x="67.03" y="218.88" width="1.59" height="1.59"/><rect class="cls-1" x="54.35" y="190.36" width="1.59" height="1.59"/><rect class="cls-1" x="54.35" y="185.59" width="1.59" height="1.59"/><rect class="cls-1" x="53.55" y="194.32" width="1.59" height="1.59"/><rect class="cls-1" x="13.93" y="6.51" width="1.59" height="1.59"/><rect class="cls-1" x="32.16" y="109.53" width="1.59" height="1.59"/><rect class="cls-1" x="12.35" y="109.53" width="1.59" height="1.59"/><rect class="cls-1" x="32.16" y="94.47" width="1.59" height="1.59"/><rect class="cls-1" x="83.65" y="64.37" width="1.59" height="1.59"/><rect class="cls-1" x="90.01" y="49.31" width="1.59" height="1.59"/><rect class="cls-1" x="68.62" y="57.24" width="1.59" height="1.59"/><rect class="cls-1" x="76.53" y="77.83" width="1.59" height="1.59"/><rect class="cls-1" x="23.44" y="422.52" width="1.59" height="1.59"/><rect class="cls-1" x="70.97" y="446.31" width="1.59" height="1.59"/><rect class="cls-1" x="77.31" y="469.29" width="1.59" height="1.59"/><rect class="cls-1" x="18.69" y="407.47" width="1.59" height="1.59"/><rect class="cls-1" x="23.44" y="445.5" width="1.59" height="1.59"/><rect class="cls-1" x="34.53" y="428.08" width="1.59" height="1.59"/><rect class="cls-1" x="44.83" y="306.05" width="1.59" height="1.59"/><rect class="cls-1" x="62.28" y="275.14" width="1.59" height="1.59"/><rect class="cls-1" x="81.28" y="266.43" width="1.59" height="1.59"/><rect class="cls-1" x="23.43" y="460.56" width="1.59" height="1.59"/><rect class="cls-1" x="3.62" y="460.57" width="1.59" height="1.59"/><rect class="cls-1" x="40.08" y="452.64" width="1.59" height="1.59"/><rect class="cls-1" x="40.87" y="494.63" width="1.59" height="1.59"/><rect class="cls-1" x="21.07" y="494.64" width="1.59" height="1.59"/><rect class="cls-1" x="57.51" y="486.71" width="1.59" height="1.59"/><rect class="cls-1" x="38.49" y="630.92" width="1.59" height="1.59"/><rect class="cls-1" x="18.67" y="630.94" width="1.59" height="1.59"/><rect class="cls-1" x="55.14" y="623.01" width="1.59" height="1.59"/><rect class="cls-1" x="102.69" y="459.77" width="1.59" height="1.59"/><rect class="cls-1" x="82.87" y="459.77" width="1.59" height="1.59"/><rect class="cls-1" x="119.33" y="451.86" width="1.59" height="1.59"/><rect class="cls-1" x="91.58" y="363.1" width="1.59" height="1.59"/><rect class="cls-1" x="80.49" y="395.58" width="1.59" height="1.59"/><rect class="cls-1" x="60.67" y="395.59" width="1.59" height="1.59"/><rect class="cls-1" x="97.13" y="387.67" width="1.59" height="1.59"/><rect class="cls-1" x="124.06" y="496.21" width="1.59" height="1.59"/><rect class="cls-1" x="104.26" y="496.23" width="1.59" height="1.59"/><rect class="cls-1" x="140.72" y="488.3" width="1.59" height="1.59"/><rect class="cls-1" x="200.14" y="476.41" width="1.59" height="1.59"/><rect class="cls-1" x="180.34" y="476.41" width="1.59" height="1.59"/><rect class="cls-1" x="216.79" y="468.48" width="1.59" height="1.59"/><rect class="cls-1" x="266.71" y="483.54" width="1.59" height="1.59"/><rect class="cls-1" x="246.91" y="483.55" width="1.59" height="1.59"/><rect class="cls-1" x="283.34" y="475.62" width="1.59" height="1.59"/><rect class="cls-1" x="233.43" y="661.83" width="1.59" height="1.59"/><rect class="cls-1" x="228.68" y="646.78" width="1.59" height="1.59"/><rect class="cls-1" x="233.43" y="699.86" width="1.59" height="1.59"/><rect class="cls-1" x="213.61" y="699.88" width="1.59" height="1.59"/><rect class="cls-1" x="233.43" y="684.81" width="1.59" height="1.59"/><rect class="cls-1" x="244.52" y="667.4" width="1.59" height="1.59"/><rect class="cls-1" x="250.07" y="691.95" width="1.59" height="1.59"/><rect class="cls-1" x="200.93" y="405.1" width="3.18" height="3.18"/><rect class="cls-1" x="244.52" y="430.47" width="3.18" height="3.18"/><rect class="cls-1" x="215.98" y="389.26" width="3.18" height="3.18"/><rect class="cls-1" x="280.98" y="69.9" width="1.59" height="1.59"/><rect class="cls-1" x="280.98" y="107.95" width="1.59" height="1.59"/><rect class="cls-1" x="280.98" y="92.88" width="1.59" height="1.59"/><rect class="cls-1" x="292.07" y="75.46" width="1.59" height="1.59"/><rect class="cls-1" x="297.6" y="100.02" width="1.59" height="1.59"/><rect class="cls-1" x="288.9" y="134.9" width="1.59" height="1.59"/><rect class="cls-1" x="264.34" y="4.14" width="1.59" height="1.59"/><rect class="cls-1" x="272.25" y="31.08" width="1.59" height="1.59"/><rect class="cls-1" x="223.12" y="9.68" width="1.59" height="1.59"/><rect class="cls-1" x="223.12" y="47.71" width="1.59" height="1.59"/><rect class="cls-1" x="223.12" y="32.66" width="1.59" height="1.59"/><rect class="cls-1" x="234.23" y="15.24" width="1.59" height="1.59"/><rect class="cls-1" x="239.77" y="39.8" width="1.59" height="1.59"/><rect class="cls-1" x="231.04" y="74.65" width="1.59" height="1.59"/><rect class="cls-1" x="287.3" y="287.03" width="1.59" height="1.59"/><rect class="cls-1" x="287.32" y="325.06" width="1.59" height="1.59"/><rect class="cls-1" x="287.3" y="310.01" width="1.59" height="1.59"/><rect class="cls-1" x="298.4" y="292.57" width="1.59" height="1.59"/><rect class="cls-1" x="303.96" y="317.14" width="1.59" height="1.59"/><rect class="cls-1" x="295.23" y="352.01" width="1.59" height="1.59"/><rect class="cls-1" x="254.82" y="504.14" width="1.59" height="1.59"/><rect class="cls-1" x="254.83" y="542.18" width="1.59" height="1.59"/><rect class="cls-1" x="319.01" y="455.81" width="1.59" height="1.59"/><rect class="cls-1" x="254.82" y="527.12" width="1.59" height="1.59"/><rect class="cls-1" x="303.16" y="391.61" width="1.59" height="1.59"/><rect class="cls-1" x="328.53" y="46.94" width="1.59" height="1.59"/><rect class="cls-1" x="339.6" y="299.71" width="1.59" height="1.59"/><rect class="cls-1" x="334.06" y="225.21" width="1.59" height="1.59"/><rect class="cls-1" x="265.91" y="509.69" width="1.59" height="1.59"/><rect class="cls-1" x="271.46" y="534.25" width="1.59" height="1.59"/><rect class="cls-1" x="262.75" y="569.12" width="1.59" height="1.59"/><rect class="cls-1" x="193.81" y="442.33" width="1.59" height="1.59"/><rect class="cls-1" x="177.16" y="444.72" width="1.59" height="1.59"/><rect class="cls-1" x="182.72" y="421.74" width="1.59" height="1.59"/><rect class="cls-1" x="193.02" y="421.74" width="1.59" height="1.59"/><rect class="cls-1" x="184.3" y="439.18" width="1.59" height="1.59"/><rect class="cls-1" x="174" y="418.58" width="1.59" height="1.59"/><rect class="cls-1" x="298.4" y="628.55" width="1.59" height="1.59"/><rect class="cls-1" x="281.76" y="630.92" width="1.59" height="1.59"/><rect class="cls-1" x="287.3" y="607.96" width="1.59" height="1.59"/><rect class="cls-1" x="297.6" y="607.96" width="1.59" height="1.59"/><rect class="cls-1" x="288.9" y="625.38" width="1.59" height="1.59"/><rect class="cls-1" x="278.6" y="604.79" width="1.59" height="1.59"/><rect class="cls-1" x="147.84" y="537.43" width="1.59" height="1.59"/><rect class="cls-1" x="172.41" y="552.48" width="1.59" height="1.59"/><rect class="cls-1" x="155.77" y="554.85" width="1.59" height="1.59"/><rect class="cls-1" x="161.31" y="531.89" width="1.59" height="1.59"/><rect class="cls-1" x="171.61" y="531.89" width="1.59" height="1.59"/><rect class="cls-1" x="162.9" y="549.32" width="1.59" height="1.59"/><rect class="cls-1" x="152.59" y="528.71" width="1.59" height="1.59"/><rect class="cls-1" x="250.07" y="332.99" width="1.59" height="1.59"/><rect class="cls-1" x="233.43" y="335.37" width="1.59" height="1.59"/><rect class="cls-1" x="238.98" y="312.39" width="1.59" height="1.59"/><rect class="cls-1" x="249.27" y="312.39" width="1.59" height="1.59"/><rect class="cls-1" x="240.57" y="329.83" width="1.59" height="1.59"/><rect class="cls-1" x="230.27" y="309.23" width="1.59" height="1.59"/><rect class="cls-1" x="218.37" y="198.27" width="1.59" height="1.59"/><rect class="cls-1" x="229.46" y="203.82" width="1.59" height="1.59"/><rect class="cls-1" x="279.39" y="203.82" width="1.59" height="1.59"/><rect class="cls-1" x="267.5" y="217.29" width="1.59" height="1.59"/><rect class="cls-1" x="281.76" y="195.11" width="1.59" height="1.59"/><rect class="cls-1" x="292.85" y="200.66" width="1.59" height="1.59"/><rect class="cls-1" x="267.5" y="209.36" width="1.59" height="1.59"/><rect class="cls-1" x="278.6" y="214.93" width="1.59" height="1.59"/><rect class="cls-1" x="261.94" y="754.55" width="3.18" height="3.18"/><rect class="cls-1" x="251.64" y="741.87" width="3.18" height="3.18"/><rect class="cls-1" x="245.32" y="709.38" width="3.18" height="3.18"/><rect class="cls-1" x="212.82" y="749" width="3.18" height="3.18"/><rect class="cls-1" x="180.34" y="740.29" width="1.59" height="1.59"/><rect class="cls-1" x="174.79" y="608.74" width="1.59" height="1.59"/><rect class="cls-1" x="179.54" y="707" width="1.59" height="1.59"/><rect class="cls-1" x="166.88" y="726.81" width="1.59" height="1.59"/><rect class="cls-1" x="166.07" y="665.01" width="1.59" height="1.59"/><rect class="cls-1" x="166.86" y="689.56" width="1.59" height="1.59"/><rect class="cls-1" x="151.81" y="680.06" width="1.59" height="1.59"/><rect class="cls-1" x="197.77" y="728.4" width="1.59" height="1.59"/><rect class="cls-1" x="315.83" y="654.72" width="1.59" height="1.59"/><rect class="cls-1" x="334.85" y="538.23" width="1.59" height="1.59"/><rect class="cls-1" x="299.19" y="726.02" width="1.59" height="1.59"/><rect class="cls-1" x="333.28" y="661.84" width="1.59" height="1.59"/><rect class="cls-1" x="332.47" y="708.58" width="1.59" height="1.59"/><rect class="cls-1" x="332.49" y="737.11" width="1.59" height="1.59"/><rect class="cls-1" x="273.84" y="710.16" width="1.59" height="1.59"/><rect class="cls-1" x="312.66" y="674.51" width="1.59" height="1.59"/><rect class="cls-1" x="336.44" y="508.89" width="1.59" height="1.59"/><rect class="cls-1" x="322.19" y="468.5" width="1.59" height="1.59"/><rect class="cls-1" x="308.71" y="455.02" width="1.59" height="1.59"/><rect class="cls-1" x="334.06" y="469.27" width="1.59" height="1.59"/><rect class="cls-1" x="289.68" y="676.9" width="1.59" height="1.59"/><rect class="cls-1" x="175.57" y="651.54" width="1.59" height="1.59"/><rect class="cls-1" x="177.95" y="595.28" width="1.59" height="1.59"/><rect class="cls-1" x="161.31" y="597.65" width="1.59" height="1.59"/><rect class="cls-1" x="453.73" y="725.22" width="3.18" height="3.18"/><rect class="cls-1" x="460.07" y="725.22" width="3.18" height="3.18"/><rect class="cls-1" x="493.34" y="723.64" width="3.18" height="3.18"/><rect class="cls-1" x="498.09" y="585.76" width="3.18" height="3.18"/><rect class="cls-1" x="490.18" y="362.3" width="3.18" height="3.18"/><rect class="cls-1" x="423.61" y="323.47" width="3.18" height="3.18"/><rect class="cls-1" x="395.86" y="235.5" width="3.18" height="3.18"/><rect class="cls-1" x="367.35" y="232.34" width="3.18" height="3.18"/><rect class="cls-1" x="380.02" y="206.2" width="3.18" height="3.18"/><rect class="cls-1" x="364.17" y="369.42" width="3.18" height="3.18"/><rect class="cls-1" x="372.1" y="386.08" width="3.18" height="3.18"/><rect class="cls-1" x="351.49" y="394.78" width="3.18" height="3.18"/><rect class="cls-1" x="375.27" y="290.19" width="3.18" height="3.18"/><rect class="cls-1" x="376.85" y="481.15" width="3.18" height="3.18"/><rect class="cls-1" x="437.07" y="351.21" width="3.18" height="3.18"/><rect class="cls-1" x="438.68" y="389.24" width="3.18" height="3.18"/><rect class="cls-1" x="367.35" y="396.36" width="3.18" height="3.18"/><rect class="cls-1" x="386.38" y="456.59" width="3.18" height="3.18"/><rect class="cls-1" x="450.55" y="455" width="3.18" height="3.18"/><rect class="cls-1" x="435.49" y="527.11" width="3.18" height="3.18"/><rect class="cls-1" x="403.02" y="466.9" width="3.18" height="3.18"/><rect class="cls-1" x="472.75" y="473.23" width="3.18" height="3.18"/><rect class="cls-1" x="364.17" y="707.77" width="3.18" height="3.18"/><rect class="cls-1" x="425.18" y="543.75" width="3.18" height="3.18"/><rect class="cls-1" x="409.34" y="546.93" width="3.18" height="3.18"/><rect class="cls-1" x="498.1" y="490.68" width="3.18" height="3.18"/><rect class="cls-1" x="436.29" y="613.49" width="3.18" height="3.18"/><rect class="cls-1" x="358.63" y="565.16" width="3.18" height="3.18"/><rect class="cls-1" x="353.08" y="619.83" width="3.18" height="3.18"/><rect class="cls-1" x="483.04" y="743.45" width="3.18" height="3.18"/><rect class="cls-1" x="447.38" y="686.4" width="3.18" height="3.18"/><rect class="cls-1" x="479.87" y="473.23" width="3.18" height="3.18"/><rect class="cls-1" x="485.43" y="465.32" width="3.18" height="3.18"/><rect class="cls-1" x="488.59" y="149.13" width="3.18" height="3.18"/><rect class="cls-1" x="445.79" y="184.81" width="3.18" height="3.18"/><rect class="cls-1" x="488.59" y="207.77" width="3.18" height="3.18"/><rect class="cls-1" x="499.68" y="316.33" width="3.18" height="3.18"/><rect class="cls-1" x="479.87" y="349.62" width="3.18" height="3.18"/><rect class="cls-1" x="380.02" y="554.87" width="6.34" height="6.34"/><rect class="cls-1" x="396.67" y="326.65" width="6.34" height="6.34"/><rect class="cls-1" x="452.14" y="218.09" width="6.34" height="6.34"/><rect class="cls-1" x="428.36" y="161.04" width="6.34" height="6.34"/><rect class="cls-1" x="448.97" y="733.14" width="3.18" height="3.18"/><rect class="cls-1" x="420.43" y="723.64" width="3.18" height="3.18"/><rect class="cls-1" x="380.04" y="741.86" width="3.18" height="3.18"/><rect class="cls-1" x="384.79" y="752.16" width="3.18" height="3.18"/><rect class="cls-1" x="436.29" y="707.79" width="3.18" height="3.18"/><rect class="cls-1" x="472.75" y="634.9" width="1.59" height="1.59"/><rect class="cls-1" x="499.69" y="680.84" width="1.59" height="1.59"/><rect class="cls-1" x="469.56" y="659.45" width="1.59" height="1.59"/><rect class="cls-1" x="485.43" y="624.6" width="1.59" height="1.59"/><rect class="cls-1" x="457.68" y="619.04" width="1.59" height="1.59"/><rect class="cls-1" x="442.63" y="569.12" width="1.59" height="1.59"/><rect class="cls-1" x="480.66" y="694.32" width="1.59" height="1.59"/><rect class="cls-1" x="495.73" y="764.85" width="1.59" height="1.59"/><rect class="cls-1" x="491.75" y="652.33" width="1.59" height="1.59"/><rect class="cls-1" x="492.55" y="672.92" width="1.59" height="1.59"/><rect class="cls-1" x="368.15" y="622.22" width="1.59" height="1.59"/><rect class="cls-1" x="384.77" y="619.85" width="1.59" height="1.59"/><rect class="cls-1" x="379.22" y="642.81" width="1.59" height="1.59"/><rect class="cls-1" x="368.92" y="642.81" width="1.59" height="1.59"/><rect class="cls-1" x="377.65" y="625.38" width="1.59" height="1.59"/><rect class="cls-1" x="387.95" y="645.99" width="1.59" height="1.59"/><rect class="cls-1" x="409.34" y="577.83" width="1.59" height="1.59"/><rect class="cls-1" x="425.99" y="575.46" width="1.59" height="1.59"/><rect class="cls-1" x="420.43" y="598.44" width="1.59" height="1.59"/><rect class="cls-1" x="410.13" y="598.44" width="1.59" height="1.59"/><rect class="cls-1" x="418.86" y="580.99" width="1.59" height="1.59"/><rect class="cls-1" x="429.16" y="601.6" width="1.59" height="1.59"/><rect class="cls-1" x="481.45" y="403.52" width="1.59" height="1.59"/><rect class="cls-1" x="498.09" y="401.13" width="1.59" height="1.59"/><rect class="cls-1" x="492.55" y="424.11" width="1.59" height="1.59"/><rect class="cls-1" x="482.25" y="424.11" width="1.59" height="1.59"/><rect class="cls-1" x="490.96" y="406.68" width="1.59" height="1.59"/><rect class="cls-1" x="439.47" y="4.14" width="1.59" height="1.59"/><rect class="cls-1" x="490.96" y="4.14" width="1.59" height="1.59"/><rect class="cls-1" x="491.75" y="505.73" width="1.59" height="1.59"/><rect class="cls-1" x="475.12" y="513.66" width="1.59" height="1.59"/><rect class="cls-1" x="425.2" y="498.59" width="1.59" height="1.59"/><rect class="cls-1" x="445" y="498.59" width="1.59" height="1.59"/><rect class="cls-1" x="408.54" y="506.52" width="1.59" height="1.59"/><rect class="cls-1" x="458.48" y="320.3" width="1.59" height="1.59"/><rect class="cls-1" x="463.23" y="335.35" width="1.59" height="1.59"/><rect class="cls-1" x="458.48" y="282.26" width="1.59" height="1.59"/><rect class="cls-1" x="385.58" y="62.76" width="1.59" height="1.59"/><rect class="cls-1" x="405.38" y="86.54" width="1.59" height="1.59"/><rect class="cls-1" x="388.74" y="50.1" width="1.59" height="1.59"/><rect class="cls-1" x="428.36" y="67.53" width="1.59" height="1.59"/><rect class="cls-1" x="409.34" y="42.96" width="1.59" height="1.59"/><rect class="cls-1" x="423.61" y="27.9" width="1.59" height="1.59"/><rect class="cls-1" x="478.29" y="282.26" width="1.59" height="1.59"/><rect class="cls-1" x="458.48" y="297.32" width="1.59" height="1.59"/><rect class="cls-1" x="447.38" y="314.76" width="1.59" height="1.59"/><rect class="cls-1" x="441.82" y="290.19" width="1.59" height="1.59"/><rect class="cls-1" x="489.37" y="575.46" width="3.18" height="3.18"/><rect class="cls-1" x="445.79" y="550.1" width="3.18" height="3.18"/><rect class="cls-1" x="474.32" y="591.3" width="3.18" height="3.18"/><rect class="cls-1" x="430.35" y="128.16" width="3.18" height="3.18"/><rect class="cls-1" x="430.35" y="134.5" width="3.18" height="3.18"/><rect class="cls-1" x="373.69" y="142.02" width="3.18" height="3.18"/><rect class="cls-1" x="469.17" y="121.82" width="3.18" height="3.18"/><rect class="cls-1" x="422.42" y="123.39" width="3.18" height="3.18"/><rect class="cls-1" x="384.77" y="103.19" width="3.18" height="3.18"/><rect class="cls-1" x="357.85" y="69.9" width="3.18" height="3.18"/><rect class="cls-1" x="431.92" y="94.87" width="3.18" height="3.18"/><rect class="cls-1" x="467.98" y="41.39" width="3.18" height="3.18"/><rect class="cls-1" x="361.01" y="113.49" width="3.18" height="3.18"/><rect class="cls-1" x="447.78" y="110.71" width="3.18" height="3.18"/><rect class="cls-1" x="491.75" y="68.33" width="3.18" height="3.18"/><rect class="cls-1" x="490.96" y="49.3" width="3.18" height="3.18"/><rect class="cls-1" x="404.59" y="8.89" width="3.18" height="3.18"/><rect class="cls-1" x="497.3" y="24.74" width="3.18" height="3.18"/><rect class="cls-1" x="404.58" y="695.11" width="1.59" height="1.59"/><rect class="cls-1" x="404.59" y="657.08" width="1.59" height="1.59"/><rect class="cls-1" x="404.58" y="672.13" width="1.59" height="1.59"/><rect class="cls-1" x="393.5" y="689.56" width="1.59" height="1.59"/><rect class="cls-1" x="387.95" y="665.01" width="1.59" height="1.59"/><rect class="cls-1" x="396.67" y="630.13" width="1.59" height="1.59"/><rect class="cls-1" x="437.07" y="478" width="1.59" height="1.59"/><rect class="cls-1" x="437.09" y="439.97" width="1.59" height="1.59"/><rect class="cls-1" x="372.9" y="526.32" width="1.59" height="1.59"/><rect class="cls-1" x="437.07" y="455.02" width="1.59" height="1.59"/><rect class="cls-1" x="388.74" y="590.51" width="1.59" height="1.59"/><rect class="cls-1" x="352.29" y="682.43" width="1.59" height="1.59"/><rect class="cls-1" x="357.85" y="756.91" width="1.59" height="1.59"/><rect class="cls-1" x="425.99" y="472.45" width="1.59" height="1.59"/><rect class="cls-1" x="420.43" y="447.89" width="1.59" height="1.59"/><rect class="cls-1" x="429.16" y="413.01" width="1.59" height="1.59"/><rect class="cls-1" x="498.09" y="539.8" width="1.59" height="1.59"/><rect class="cls-1" x="498.89" y="560.41" width="1.59" height="1.59"/><rect class="cls-1" x="393.5" y="353.58" width="1.59" height="1.59"/><rect class="cls-1" x="410.13" y="351.22" width="1.59" height="1.59"/><rect class="cls-1" x="404.58" y="374.19" width="1.59" height="1.59"/><rect class="cls-1" x="394.29" y="374.19" width="1.59" height="1.59"/><rect class="cls-1" x="403.01" y="356.76" width="1.59" height="1.59"/><rect class="cls-1" x="413.31" y="377.36" width="1.59" height="1.59"/><rect class="cls-1" x="441.82" y="649.15" width="1.59" height="1.59"/><rect class="cls-1" x="458.47" y="646.77" width="1.59" height="1.59"/><rect class="cls-1" x="452.93" y="669.75" width="1.59" height="1.59"/><rect class="cls-1" x="442.63" y="669.76" width="1.59" height="1.59"/><rect class="cls-1" x="451.34" y="652.33" width="1.59" height="1.59"/><rect class="cls-1" x="461.64" y="672.93" width="1.59" height="1.59"/><rect class="cls-1" x="424.41" y="764.85" width="1.59" height="1.59"/><rect class="cls-1" x="413.31" y="767.21" width="1.59" height="1.59"/><rect class="cls-1" x="428.36" y="226" width="3.18" height="3.18"/><rect class="cls-1" x="438.66" y="238.68" width="3.18" height="3.18"/><rect class="cls-1" x="445" y="271.18" width="3.18" height="3.18"/><rect class="cls-1" x="454.52" y="182.41" width="3.18" height="3.18"/><rect class="cls-1" x="448.18" y="192.72" width="3.18" height="3.18"/><rect class="cls-1" x="477.48" y="231.54" width="3.18" height="3.18"/><rect class="cls-1" x="494.14" y="253.73" width="1.59" height="1.59"/><rect class="cls-1" x="376.06" y="327.44" width="1.59" height="1.59"/><rect class="cls-1" x="357.06" y="443.91" width="1.59" height="1.59"/><rect class="cls-1" x="392.7" y="256.12" width="1.59" height="1.59"/><rect class="cls-1" x="358.63" y="320.3" width="1.59" height="1.59"/><rect class="cls-1" x="359.42" y="273.55" width="1.59" height="1.59"/><rect class="cls-1" x="359.43" y="245.03" width="1.59" height="1.59"/><rect class="cls-1" x="358.63" y="195.11" width="1.59" height="1.59"/><rect class="cls-1" x="418.07" y="271.98" width="1.59" height="1.59"/><rect class="cls-1" x="379.24" y="307.62" width="1.59" height="1.59"/><rect class="cls-1" x="355.47" y="473.25" width="1.59" height="1.59"/><rect class="cls-1" x="369.72" y="513.66" width="1.59" height="1.59"/><rect class="cls-1" x="383.19" y="527.12" width="1.59" height="1.59"/><rect class="cls-1" x="357.83" y="512.85" width="1.59" height="1.59"/><rect class="cls-1" x="402.2" y="305.24" width="1.59" height="1.59"/><rect class="cls-1" x="456.09" y="114.29" width="1.59" height="1.59"/><rect class="cls-1" x="494.12" y="105.56" width="1.59" height="1.59"/><rect class="cls-1" x="470.36" y="80.21" width="1.59" height="1.59"/><rect class="cls-1" x="462.43" y="94.47" width="1.59" height="1.59"/><rect class="cls-1" x="449.75" y="69.12" width="1.59" height="1.59"/><rect class="cls-1" x="438.66" y="126.17" width="1.59" height="1.59"/><rect class="cls-1" x="455.3" y="25.53" width="1.59" height="1.59"/><rect class="cls-1" x="437.88" y="37.41" width="1.59" height="1.59"/><rect class="cls-1" x="361.01" y="11.26" width="1.59" height="1.59"/><rect class="cls-1" x="401.42" y="23.15" width="1.59" height="1.59"/><rect class="cls-1" x="383.99" y="35.03" width="1.59" height="1.59"/><rect class="cls-1" x="403.79" y="191.14" width="1.59" height="1.59"/><rect class="cls-1" x="403.79" y="162.63" width="1.59" height="1.59"/><rect class="cls-1" x="411.72" y="146.77" width="1.59" height="1.59"/><rect class="cls-1" x="398.25" y="123.79" width="1.59" height="1.59"/></svg>