<svg id="Layer_1" data-name="Layer 1" xmlns="http://www.w3.org/2000/svg" viewBox="0 0 768 768"><defs><style>.cls-1{fill:none;stroke:#595959;stroke-miterlimit:10;}</style></defs><title>ticks</title><circle class="cls-1" cx="383.72" cy="383.67" r="382.18"/><line class="cls-1" x1="500.86" y1="20.23" x2="495.15" y2="37.95"/><line class="cls-1" x1="283.58" y1="733.02" x2="277.87" y2="750.74"/><line class="cls-1" x1="19.01" y1="268.88" x2="36.57" y2="274.54"/><line class="cls-1" x1="732.93" y1="486.41" x2="750.49" y2="492.07"/><line class="cls-1" x1="45.16" y1="560.03" x2="61.61" y2="551.5"/><line class="cls-1" x1="701.39" y1="206" x2="717.84" y2="197.47"/><line class="cls-1" x1="563.88" y1="719.69" x2="555.5" y2="703.16"/><line class="cls-1" x1="216.53" y1="60.68" x2="208.15" y2="44.14"/><line class="cls-1" x1="354.89" y1="3.18" x2="356.28" y2="21.55"/><line class="cls-1" x1="422.8" y1="745.48" x2="424.19" y2="763.86"/><line class="cls-1" x1="2.37" y1="411.68" x2="20.77" y2="410.31"/><line class="cls-1" x1="745.5" y1="344.48" x2="763.89" y2="343.11"/><line class="cls-1" x1="133.24" y1="672.28" x2="145.26" y2="658.32"/><line class="cls-1" x1="610.69" y1="99.87" x2="622.71" y2="85.91"/><line class="cls-1" x1="679.17" y1="627.04" x2="665.18" y2="615.01"/><line class="cls-1" x1="105.68" y1="149.67" x2="91.69" y2="137.64"/></svg>